<svg id="b93741e6-59bf-41e4-b5c5-3021e6ef9335" data-name="Layer 1" xmlns="http://www.w3.org/2000/svg" viewBox="0 0 257.54 240.61"><path d="M306.19,458l-74-14.8c-3.63,8.15-9.59,13.14-18.55,14.63-.53,11.55.67,22.93.6,34.62,5.72,1.07,10.38,3.44,12.95,8.73a15.5,15.5,0,0,1,1.33,10.16,15.49,15.49,0,0,1-30.25.6,15.17,15.17,0,0,1,2.18-12.49c2.5-3.85,6.29-5.9,11-7-.24-11.58-.47-22.87-.71-34.46-9-1.4-15.76-5.57-19.08-14s-1.49-16.13,4.16-23.34l-5-5.76c-3.79,1.47-7.43,2.73-11.3.87a11.8,11.8,0,0,1-5.65-5.22,11.29,11.29,0,0,1,2.55-13.94,11.42,11.42,0,0,1,14.49-.62c4.91,3.53,5.62,8.67,2.2,17.1l4.6,5,12.42-4.85q1.37-23.75,2.8-49l-38.18-6.57c-3.41,5-7.77,7.65-14.33,5.91l-16.87,27.48c4.37,4.62,7.39,9.72,7.29,16.26s-2.77,11.77-8,16.27L164,456.37c8.82-1.3,13.58.8,15.85,6.75a11.38,11.38,0,0,1-4.57,13.74,11.57,11.57,0,0,1-14.42-1.67c-4.33-4.48-4.28-10,.43-17L140.5,426.55c-3.27.66-6.15,1.55-9.06,1.73s-5.68-.38-9.12-.67L113.05,440c3.53,4.43,5,9.43,3.58,15a14.88,14.88,0,0,1-5.42,8.3,16.49,16.49,0,0,1-19.83-.12A15.93,15.93,0,0,1,87,444.27c3.34-7.5,10-10.14,21.18-8.24l8.72-12.17c-7.56-7.48-9.58-16.11-5.17-26.44l-10-6.5c-7.73,4.85-12.9,4.79-17.41,0a11.3,11.3,0,0,1-.94-14.43,11.48,11.48,0,0,1,13.62-4c5.84,2.37,8.12,7.61,6.53,15.67l9.93,6.51c6.91-7.38,15.09-9.55,24.94-6.27l17.34-27.8c-3.37-4.93-3.28-9.74,0-14.82l-18.45-20.11c-9,2.47-14,1.11-17-4.43A11.6,11.6,0,0,1,122.94,307a11.31,11.31,0,0,1,14.47-.29c4.85,3.7,5.52,8.79,1.94,16.52l18.37,20c3.95-1.41,7.73-2.57,11.72-.72s5.54,5.17,6.45,9.31l38,6.82c1.55-14.83,2.13-29.44,3.38-44.39-5.27-1.81-9.12-5.13-10.93-10.43a15.25,15.25,0,0,1,.09-10.26c2.29-6.51,9.2-11,15.75-10.29,7.64.83,13.29,6.17,14.31,13.56,1.11,8-3.17,13.77-13.68,18-1,14.48-2,29.21-3.1,44.5,7.88,1.69,15.76,2.92,23.84,4,2.69-5,6.2-8.76,11.79-9.8a15.83,15.83,0,0,1,11.17,1.95c7.71,4.54,9.23,12.25,4.43,23.53.74.81,1.53,1.73,2.39,2.59s1.79,1.66,2.86,2.65c6.65-5.67,14.08-7.62,22.84-5.31l5.07-17.73c-1.08-.91-2-1.68-2.94-2.5a11.31,11.31,0,0,1-2.29-14.27,11.62,11.62,0,0,1,13.34-5c5,1.47,8,6.27,7.61,11.88A11.31,11.31,0,0,1,310,361.57c-1,.14-2,.18-3.22.3-1.72,5.84-3.43,11.67-5.25,17.86,8.24,4.39,13.12,11.13,13.41,20.5a21.72,21.72,0,0,1-6.69,16.52,22.24,22.24,0,0,1-19.05,6.72c-7.22-.86-12.71-4.76-16.92-10.94l-39.66,17.25.61,7.53,74.24,14.85c2.57-4.87,6.21-8.52,11.72-9.59a15.94,15.94,0,0,1,10.56,1.35,16.14,16.14,0,0,1,8.46,18.54,16.42,16.42,0,0,1-15.81,12C314.05,474.3,308.57,468.94,306.19,458ZM230,424.35l39.64-17.28c0-3.92-.5-7.61.14-11.08s2.43-6.67,3.82-10.24l-5.3-5c-5.36,3.77-10.87,4.61-16.58,2.12-5.88-2.57-8.66-7.55-9.52-13.8l-23.11-4.21c-1.17,16.73-2.3,33-3.43,49.34A23.72,23.72,0,0,1,230,424.35Zm62-6.62a17.14,17.14,0,1,0-17.16-17.07A17.18,17.18,0,0,0,292,417.73ZM211.32,451.5c8.8.1,16-6.59,16-15.29-.06-11.18-8.58-16.6-15.67-16.48a15.89,15.89,0,1,0-.3,31.77ZM129.9,392.82a14.55,14.55,0,0,0-14.37,14.67,14.84,14.84,0,0,0,14.92,14.61c8.06-.12,14.84-7.06,14.64-15A14.75,14.75,0,0,0,129.9,392.82ZM333,458.06a10.31,10.31,0,0,0-20.62-.35,10.53,10.53,0,0,0,10.29,10.61A10.76,10.76,0,0,0,333,458.06Zm-221.34-7.71a10,10,0,1,0-10.17,9.89A10.31,10.31,0,0,0,111.63,450.35Zm146.53-91.1a9.38,9.38,0,0,0-9.68,9.61,9.78,9.78,0,1,0,19.56-.18A9.5,9.5,0,0,0,258.16,359.25ZM223,508.25a9.7,9.7,0,0,0-9.75-9.72,9.68,9.68,0,0,0-.11,19.35A9.79,9.79,0,0,0,223,508.25Zm7-210a9.54,9.54,0,0,0-9.67-9.7,9.83,9.83,0,0,0-9.56,9.57,9.46,9.46,0,0,0,9.6,9.76A9.29,9.29,0,0,0,230,298.2ZM184.12,410.87a5.59,5.59,0,0,0,5.43-5.84,5.32,5.32,0,0,0-5.84-5.32,5.65,5.65,0,0,0-5.35,5.56A5.76,5.76,0,0,0,184.12,410.87Zm-9.67,56.67a5.64,5.64,0,0,0-5.64-5.66,5.59,5.59,0,0,0-.16,11.17A5.65,5.65,0,0,0,174.45,467.54Zm-44-146.44a5.74,5.74,0,0,0,5.33-6,5.22,5.22,0,0,0-5.68-5.13,5.61,5.61,0,0,0-5.47,5.52A5.9,5.9,0,0,0,130.49,321.1ZM98.71,383.22A6,6,0,0,0,93,377.48a5.61,5.61,0,0,0-5.4,5.56,5.21,5.21,0,0,0,5.22,5.6A5.59,5.59,0,0,0,98.71,383.22Zm66.05-35.78a5.47,5.47,0,0,0-5.66,5.2,5.76,5.76,0,0,0,5.5,5.82A5.39,5.39,0,0,0,170,353,5.47,5.47,0,0,0,164.76,347.44Zm149.09,2.61a5.18,5.18,0,0,0-5.2-5.54,5.65,5.65,0,0,0-5.57,5.73,5.22,5.22,0,0,0,5.06,5.32A5.41,5.41,0,0,0,313.85,350.05Z" transform="translate(-81.23 -283.2)" style="fill:#fff"/></svg>