<svg xmlns="http://www.w3.org/2000/svg" width="19.036" height="19.524" viewBox="0 0 19.036 19.524">
  <g id="ic-add-task" transform="translate(0)">
    <path id="Path_6909" data-name="Path 6909" d="M196.661,65.572a2.2,2.2,0,0,1-2.2-2.2V53.613a2.193,2.193,0,0,1,1.863-2.162,2.192,2.192,0,0,0,1.8.942h4.881a2.192,2.192,0,0,0,1.8-.942,2.193,2.193,0,0,1,1.863,2.162h0a.732.732,0,1,0,1.464,0h0a3.666,3.666,0,0,0-2.946-3.589A2.192,2.192,0,0,0,203.006,48h-4.881a2.192,2.192,0,0,0-2.179,2.025A3.666,3.666,0,0,0,193,53.613v9.762a3.665,3.665,0,0,0,3.661,3.661h2.929a.732.732,0,0,0,0-1.464m-1.464-16.107h4.881a.732.732,0,0,1,0,1.464h-4.881a.732.732,0,0,1,0-1.464" transform="translate(-193 -48)" fill="#000926"/>
    <g id="Ellipse_209" data-name="Ellipse 209" transform="translate(7.322 7.81)" fill="none" stroke="#000926" stroke-width="1.3">
      <circle cx="5.857" cy="5.857" r="5.857" stroke="none"/>
      <circle cx="5.857" cy="5.857" r="5.207" fill="none"/>
    </g>
    <path id="Path_6910" data-name="Path 6910" d="M411,44.238v4.346" transform="translate(-397.821 -32.744)" fill="none" stroke="#000926" stroke-linecap="round" stroke-width="1.3"/>
    <path id="Path_6911" data-name="Path 6911" d="M0,0V4.346" transform="translate(15.352 13.667) rotate(90)" fill="none" stroke="#000926" stroke-linecap="round" stroke-width="1.3"/>
  </g>
</svg>
