<svg xmlns="http://www.w3.org/2000/svg" width="19.5" height="19.438" viewBox="0 0 19.5 19.438">
  <g id="ic-chart" transform="translate(-1316 -187.49)">
    <path id="Path_380" data-name="Path 380" d="M210.75,153.357h-7a1.252,1.252,0,0,1-1.25-1.25v-5.931a1.758,1.758,0,0,0-1.968-1.744,9.71,9.71,0,0,0-8.528,9.95,9.868,9.868,0,0,0,9.471,9.471c.092,0,.185,0,.278,0a9.75,9.75,0,0,0,9.747-9.75.75.75,0,0,0-.75-.75m-3.248,6.664a8.075,8.075,0,0,1-5.986,2.332,8.346,8.346,0,0,1-8.012-8.012,8.217,8.217,0,0,1,7.214-8.421l.03,0a.253.253,0,0,1,.163.064.259.259,0,0,1,.089.194v5.931a2.752,2.752,0,0,0,2.75,2.75h6.217a8.18,8.18,0,0,1-2.465,5.164" transform="translate(1124 43.071)" fill="#000926"/>
    <path id="Path_381" data-name="Path 381" d="M206.75,151.857h4a.75.75,0,0,0,.75-.75,6.759,6.759,0,0,0-5.455-6.626,1.7,1.7,0,0,0-1.4.361,1.765,1.765,0,0,0-.646,1.367v2.9a2.752,2.752,0,0,0,2.75,2.75m-1.25-5.648a.271.271,0,0,1,.1-.209.194.194,0,0,1,.125-.05.2.2,0,0,1,.033,0,5.257,5.257,0,0,1,4.188,4.4h-3.2a1.251,1.251,0,0,1-1.25-1.25Z" transform="translate(1124 43.071)" fill="#000926"/>
  </g>
</svg>
