<svg id="ic-cases" xmlns="http://www.w3.org/2000/svg" width="20.563" height="20.563" viewBox="0 0 20.563 20.563">
  <path id="Path_6919" data-name="Path 6919" d="M111.554,96H101.009A5.015,5.015,0,0,0,96,101.009v10.545a5.015,5.015,0,0,0,5.009,5.009h10.545a5.015,5.015,0,0,0,5.009-5.009V101.009A5.015,5.015,0,0,0,111.554,96m-10.545,1.582h10.545a3.431,3.431,0,0,1,3.427,3.427V107.6h-2.962a2.9,2.9,0,0,0-2.751,1.985l-.092.278a1.318,1.318,0,0,1-1.251.9h-3.288a1.317,1.317,0,0,1-1.25-.9l-.094-.282a2.9,2.9,0,0,0-2.75-1.982H97.582v-6.591a3.431,3.431,0,0,1,3.427-3.427m10.545,17.4H101.009a3.431,3.431,0,0,1-3.427-3.427v-2.373h2.962a1.317,1.317,0,0,1,1.25.9l.094.282a2.9,2.9,0,0,0,2.75,1.982h3.288a2.9,2.9,0,0,0,2.751-1.985l.092-.278a1.318,1.318,0,0,1,1.251-.9h2.962v2.373a3.431,3.431,0,0,1-3.427,3.427" transform="translate(-96 -96)" fill="#000926"/>
</svg>
