<svg id="ic-cold" xmlns="http://www.w3.org/2000/svg" xmlns:xlink="http://www.w3.org/1999/xlink" width="19.53" height="19.5" viewBox="0 0 19.53 19.5">
  <defs>
    <clipPath id="clip-path">
      <rect id="Rectangle_2592" data-name="Rectangle 2592" width="19.53" height="19.5" fill="#000926"/>
    </clipPath>
  </defs>
  <g id="Group_3808" data-name="Group 3808" clip-path="url(#clip-path)">
    <path id="Path_7031" data-name="Path 7031" d="M19.5,11.359a.755.755,0,0,0-.929-.512l-3.468,1-2.089-1.157V8.742l2.037-1.175,3.474,1.082a.75.75,0,1,0,.446-1.432l-2.15-.67,1.114-.642a.75.75,0,1,0-.749-1.3L16.157,5.2l.631-2.349a.75.75,0,1,0-1.448-.389l-1.02,3.8L12.268,7.443,10.515,6.43V3.836L13.273,1.3A.75.75,0,1,0,12.258.2L10.515,1.8V.75a.75.75,0,0,0-1.5,0V1.877L7.286.21A.75.75,0,1,0,6.245,1.29l2.77,2.669V6.432L7.206,7.474,4.955,6.227,4.077,2.588a.75.75,0,1,0-1.458.352l.555,2.3-.917-.508A.75.75,0,1,0,1.53,6.044l.993.55-2,.623A.75.75,0,1,0,.973,8.649L4.337,7.6,6.516,8.807v1.952L4.289,12.042,1.036,10.863a.75.75,0,0,0-.511,1.41l2.065.749-1,.574a.75.75,0,0,0,.749,1.3l.975-.563-.579,2.331a.75.75,0,0,0,1.456.362l.928-3.733,2.14-1.234,1.752,1.013V15.44l-2.78,2.78A.75.75,0,1,0,7.3,19.281l1.719-1.72V18.75a.75.75,0,0,0,1.5,0V17.561l1.72,1.72A.75.75,0,1,0,13.3,18.22l-2.781-2.78V13.069l1.81-1.043,2.054,1.138,1.084,3.78a.749.749,0,0,0,.72.543.71.71,0,0,0,.207-.03.749.749,0,0,0,.514-.927l-.67-2.338,1.04.577A.75.75,0,1,0,18,13.456l-1.045-.579,2.033-.589a.75.75,0,0,0,.512-.929m-7.986-.6L9.764,11.771,8.015,10.759V8.739L9.767,7.73l1.749,1.011Z" fill="#000926"/>
  </g>
</svg>
