<svg xmlns="http://www.w3.org/2000/svg" width="19.5" height="15.736" viewBox="0 0 19.5 15.736">
  <g id="ic-chat" transform="translate(-983.66 -893.671)">
    <path id="Path_7010" data-name="Path 7010" d="M14.75,98h-10A4.755,4.755,0,0,0,0,102.751v4a4.756,4.756,0,0,0,4.75,4.75h7.892a3.25,3.25,0,0,1,1.672.463l2.535,1.52a1.75,1.75,0,0,0,2.651-1.5v-9.233A4.755,4.755,0,0,0,14.75,98M18,111.984a.243.243,0,0,1-.127.218.241.241,0,0,1-.251,0h0l-2.535-1.521A4.758,4.758,0,0,0,12.642,110H4.75a3.254,3.254,0,0,1-3.25-3.25v-4A3.254,3.254,0,0,1,4.75,99.5h10a3.254,3.254,0,0,1,3.25,3.25Z" transform="translate(983.66 795.67)" fill="#000926"/>
    <path id="Path_7011" data-name="Path 7011" d="M9.77,104H9.76a.746.746,0,0,0-.745.75A.753.753,0,1,0,9.77,104" transform="translate(983.66 795.67)" fill="#000926"/>
    <path id="Path_7012" data-name="Path 7012" d="M5.77,104H5.76a.746.746,0,0,0-.745.75A.753.753,0,1,0,5.77,104" transform="translate(983.66 795.67)" fill="#000926"/>
    <path id="Path_7013" data-name="Path 7013" d="M13.77,104h-.01a.746.746,0,0,0-.745.75.753.753,0,1,0,.755-.75" transform="translate(983.66 795.67)" fill="#000926"/>
  </g>
</svg>
