<svg id="ic-calendar" xmlns="http://www.w3.org/2000/svg" width="19.5" height="16.5" viewBox="0 0 19.5 16.5">
  <path id="Path_6974" data-name="Path 6974" d="M16.75,1H15.5V.75a.75.75,0,0,0-1.5,0V1H10.5V.75A.75.75,0,0,0,9,.75V1H5.5V.75A.75.75,0,0,0,4,.75V1H2.75A2.752,2.752,0,0,0,0,3.75v10A2.752,2.752,0,0,0,2.75,16.5h14a2.752,2.752,0,0,0,2.75-2.75v-10A2.752,2.752,0,0,0,16.75,1M18,13.75A1.252,1.252,0,0,1,16.75,15h-14A1.252,1.252,0,0,1,1.5,13.75v-10A1.252,1.252,0,0,1,2.75,2.5H4v.25a.75.75,0,0,0,1.5,0V2.5H9v.25a.75.75,0,0,0,1.5,0V2.5H14v.25a.75.75,0,0,0,1.5,0V2.5h1.25A1.252,1.252,0,0,1,18,3.75Z" fill="#000926"/>
  <path id="Path_6975" data-name="Path 6975" d="M4.769,7h-.01a.746.746,0,0,0-.745.75A.753.753,0,1,0,4.769,7" fill="#000926"/>
  <path id="Path_6976" data-name="Path 6976" d="M9.769,7h-.01a.746.746,0,0,0-.745.75A.753.753,0,1,0,9.769,7" fill="#000926"/>
  <path id="Path_6977" data-name="Path 6977" d="M14.769,7h-.01a.746.746,0,0,0-.745.75A.753.753,0,1,0,14.769,7" fill="#000926"/>
  <path id="Path_6978" data-name="Path 6978" d="M4.769,11h-.01a.746.746,0,0,0-.745.75A.753.753,0,1,0,4.769,11" fill="#000926"/>
  <path id="Path_6979" data-name="Path 6979" d="M9.769,11h-.01a.746.746,0,0,0-.745.75A.753.753,0,1,0,9.769,11" fill="#000926"/>
</svg>
