<svg id="ic-documents" xmlns="http://www.w3.org/2000/svg" width="15.523" height="19.528" viewBox="0 0 15.523 19.528">
  <path id="Path_17" data-name="Path 17" d="M62.769,96H52.754A2.758,2.758,0,0,0,50,98.754v14.02a2.757,2.757,0,0,0,2.754,2.754h7.182a2.738,2.738,0,0,0,1.948-.806l2.832-2.833a2.736,2.736,0,0,0,.806-1.947V98.754A2.757,2.757,0,0,0,62.769,96M51.5,112.774V98.754A1.254,1.254,0,0,1,52.754,97.5H62.769a1.253,1.253,0,0,1,1.252,1.252v10.265H60.766a1.754,1.754,0,0,0-1.753,1.753v3.255H52.754a1.253,1.253,0,0,1-1.252-1.252m9.32.885a1.253,1.253,0,0,1-.306.205v-3.093a.252.252,0,0,1,.25-.25h3.092a1.24,1.24,0,0,1-.2.306Z" transform="translate(-50 -96)" fill="#000926"/>
  <path id="Path_18" data-name="Path 18" d="M54.751,103.5H60.76a.751.751,0,0,0,0-1.5H54.751a.751.751,0,1,0,0,1.5" transform="translate(-49.994 -95.991)" fill="#000926"/>
  <path id="Path_19" data-name="Path 19" d="M57.755,106h-3a.751.751,0,1,0,0,1.5h3a.751.751,0,1,0,0-1.5" transform="translate(-49.994 -95.985)" fill="#000926"/>
</svg>
