<svg xmlns="http://www.w3.org/2000/svg" width="17.083" height="19.036" viewBox="0 0 17.083 19.036">
  <g id="ic-delete" transform="translate(0)">
    <path id="Path_350" data-name="Path 350" d="M101.732,97.464h7.81a.732.732,0,0,0,0-1.464h-7.81a.732.732,0,0,0,0,1.464" transform="translate(-97.095 -96)" fill="#000926"/>
    <path id="Path_351" data-name="Path 351" d="M113.351,99H97.732a.732.732,0,0,0,0,1.464h.291l.687,10.315a4.65,4.65,0,0,0,4.627,4.328h4.409a4.65,4.65,0,0,0,4.626-4.328l.687-10.315h.292a.732.732,0,0,0,0-1.464m-2.44,11.681a3.182,3.182,0,0,1-3.166,2.962h-4.409a3.18,3.18,0,0,1-3.165-2.962l-.681-10.217h12.1Z" transform="translate(-97 -96.071)" fill="#000926"/>
    <path id="Path_352" data-name="Path 352" d="M105.732,111.3a.732.732,0,0,0,.732-.732v-6.833a.732.732,0,0,0-1.464,0v6.833a.732.732,0,0,0,.732.732" transform="translate(-97.19 -96.167)" fill="#000926"/>
    <path id="Path_353" data-name="Path 353" d="M108.732,111.3a.732.732,0,0,0,.732-.732v-6.833a.732.732,0,0,0-1.464,0v6.833a.732.732,0,0,0,.732.732" transform="translate(-97.261 -96.167)" fill="#000926"/>
    <path id="Path_354" data-name="Path 354" d="M102.732,111.3a.732.732,0,0,0,.732-.732v-6.833a.732.732,0,0,0-1.464,0v6.833a.732.732,0,0,0,.732.732" transform="translate(-97.119 -96.167)" fill="#000926"/>
  </g>
</svg>
