<svg id="ic-explorer" xmlns="http://www.w3.org/2000/svg" width="19.036" height="19.036" viewBox="0 0 19.036 19.036">
  <path id="Path_6906" data-name="Path 6906" d="M58.982,0A8.047,8.047,0,0,0,52.8,13.2l-4.582,4.583a.732.732,0,1,0,1.035,1.035l4.583-4.582A8.051,8.051,0,1,0,58.982,0m0,14.643a6.589,6.589,0,1,1,6.589-6.589,6.6,6.6,0,0,1-6.589,6.589" transform="translate(-48 0)" fill="#000926"/>
  <path id="Path_6907" data-name="Path 6907" d="M63.957,5.145a.734.734,0,0,0-1.025.146L60.679,8.3a.25.25,0,0,1-.179.1.239.239,0,0,1-.189-.071L58.868,6.88a1.708,1.708,0,0,0-2.415,0L54.215,9.119a.732.732,0,1,0,1.035,1.035l2.238-2.238a.246.246,0,0,1,.346,0l1.442,1.443a1.708,1.708,0,0,0,2.575-.183l2.253-3a.733.733,0,0,0-.146-1.025" transform="translate(-48.143 -0.119)" fill="#000926"/>
</svg>
