<svg xmlns="http://www.w3.org/2000/svg" width="19.374" height="19.372" viewBox="0 0 19.374 19.372">
  <g id="ic-edit" transform="translate(0)">
    <path id="Path_39" data-name="Path 39" d="M164.055,4.854l-1.38-1.381a3.667,3.667,0,0,0-5.178,0l-9.761,9.762A3.654,3.654,0,0,0,146.758,15l-.947,4.085a2.2,2.2,0,0,0,2.135,2.693,2.253,2.253,0,0,0,.5-.058l4.084-.948h0a3.659,3.659,0,0,0,1.762-.977l9.761-9.761a3.659,3.659,0,0,0,0-5.177Zm-10.8,13.9a2.187,2.187,0,0,1-1.057.587l-4.084.948a.735.735,0,0,1-.88-.88l.947-4.084a2.21,2.21,0,0,1,.588-1.057l7.862-7.863,4.488,4.488ZM163.019,9l-.862.863-4.488-4.487.863-.863a2.2,2.2,0,0,1,3.106,0l1.38,1.38a2.194,2.194,0,0,1,0,3.106Z" transform="translate(-145.753 -2.403)" fill="#000926"/>
  </g>
</svg>
