<svg xmlns="http://www.w3.org/2000/svg" width="19.5" height="19.5" viewBox="0 0 19.5 19.5">
  <g id="ic-emoji" transform="translate(-1107.14 -891.363)">
    <path id="Path_6811" data-name="Path 6811" d="M517.042,235.316a9.75,9.75,0,1,0,9.75,9.75A9.751,9.751,0,0,0,517.042,235.316Zm0,17.961a8.21,8.21,0,1,1,8.211-8.21A8.22,8.22,0,0,1,517.042,253.277Zm-2.117-9.807a1.625,1.625,0,1,0-1.625,1.625A1.625,1.625,0,0,0,514.926,243.469Zm5.858-1.625a1.625,1.625,0,1,0,1.625,1.625A1.625,1.625,0,0,0,520.784,241.844Zm-.277,5.759a.736.736,0,0,0-1.026.18,3.065,3.065,0,0,1-4.876,0,.737.737,0,1,0-1.207.846,4.414,4.414,0,0,0,3.645,1.836h0a4.415,4.415,0,0,0,3.641-1.836A.736.736,0,0,0,520.506,247.6Z" transform="translate(599.848 656.047)" fill="#000926"/>
  </g>
</svg>
