<svg xmlns="http://www.w3.org/2000/svg" width="19.5" height="19.5" viewBox="0 0 19.5 19.5">
  <g id="ic-exit-fullscreen" transform="translate(-98.25 -50.25)">
    <path id="Path_26" data-name="Path 26" d="M105,50.25a.75.75,0,0,0-.75.75v5a.25.25,0,0,1-.25.25H99a.75.75,0,0,0,0,1.5h5A1.752,1.752,0,0,0,105.75,56V51A.75.75,0,0,0,105,50.25Z" fill="#000926"/>
    <path id="Path_27" data-name="Path 27" d="M112,57.75h5a.75.75,0,0,0,0-1.5h-5a.25.25,0,0,1-.25-.25V51a.75.75,0,0,0-1.5,0v5A1.752,1.752,0,0,0,112,57.75Z" fill="#000926"/>
    <path id="Path_28" data-name="Path 28" d="M104,62.25H99a.75.75,0,0,0,0,1.5h5a.25.25,0,0,1,.25.25v5a.75.75,0,0,0,1.5,0V64A1.752,1.752,0,0,0,104,62.25Z" fill="#000926"/>
    <path id="Path_29" data-name="Path 29" d="M117,62.25h-5A1.752,1.752,0,0,0,110.25,64v5a.75.75,0,0,0,1.5,0V64a.25.25,0,0,1,.25-.25h5a.75.75,0,0,0,0-1.5Z" fill="#000926"/>
  </g>
</svg>
