<svg xmlns="http://www.w3.org/2000/svg" width="19.808" height="14.521" viewBox="0 0 19.808 14.521">
  <g id="ic-fodler" transform="translate(-909.459 -853.043)">
    <path id="Path_6951" data-name="Path 6951" d="M211.569,9.882a1.738,1.738,0,0,0-1.517-.873H197.92a2.764,2.764,0,0,0-2.392,1.388L193.5,13.941V5.754A1.253,1.253,0,0,1,194.754,4.5h3.177a1.26,1.26,0,0,1,.885.367l1.123,1.123a1.763,1.763,0,0,0,1.239.514h6.6a.751.751,0,1,0,0-1.5h-6.6A.255.255,0,0,1,201,4.93l-1.123-1.123A2.733,2.733,0,0,0,197.931,3h-3.177A2.756,2.756,0,0,0,192,5.754V16.77h0l0,.012a.748.748,0,0,0,.09.328c.006.011,0,.024.009.035s.032.027.045.045a.733.733,0,0,0,.184.184.889.889,0,0,0,.081.055.736.736,0,0,0,.339.09h14.441a1.754,1.754,0,0,0,1.521-.883l2.862-5.007a1.738,1.738,0,0,0-.006-1.749m-1.3,1-2.861,5.007a.249.249,0,0,1-.217.126H194.045l2.787-4.877a1.257,1.257,0,0,1,1.088-.631h12.133a.251.251,0,0,1,.218.375" transform="translate(717.459 850.043)" fill="#000926"/>
  </g>
</svg>
