<svg xmlns="http://www.w3.org/2000/svg" width="19.036" height="15.131" viewBox="0 0 19.036 15.131">
  <g id="ic-filters" transform="translate(0)">
    <g id="Group_6" data-name="Group 6" transform="translate(0 0)">
      <path id="Path_19" data-name="Path 19" d="M5.911,107.571A3.667,3.667,0,0,0,9.5,104.643H20.554a.732.732,0,1,0,0-1.464H9.5a3.661,3.661,0,1,0-3.587,4.393Zm0-5.857a2.2,2.2,0,1,1-2.2,2.2A2.2,2.2,0,0,1,5.911,101.714Z" transform="translate(-2.25 -100.25)" fill="#000926"/>
      <path id="Path_20" data-name="Path 20" d="M20.554,111.179H18.283a3.66,3.66,0,0,0-7.173,0H2.982a.732.732,0,0,0,0,1.464H11.11a3.66,3.66,0,0,0,7.173,0h2.271a.732.732,0,0,0,0-1.464ZM14.7,114.107a2.2,2.2,0,1,1,2.2-2.2A2.2,2.2,0,0,1,14.7,114.107Z" transform="translate(-2.25 -100.44)" fill="#000926"/>
    </g>
  </g>
</svg>
