<svg id="ic-file-other" xmlns="http://www.w3.org/2000/svg" xmlns:xlink="http://www.w3.org/1999/xlink" width="15.5" height="19.5" viewBox="0 0 15.5 19.5">
  <defs>
    <clipPath id="clip-path">
      <rect id="Rectangle_2564" data-name="Rectangle 2564" width="15.5" height="19.5" fill="#000926"/>
    </clipPath>
  </defs>
  <g id="Group_3732" data-name="Group 3732" clip-path="url(#clip-path)">
    <path id="Path_6990" data-name="Path 6990" d="M14.694,3.634,11.866.806A2.729,2.729,0,0,0,9.922,0H3.75A3.755,3.755,0,0,0,0,3.75v12A3.755,3.755,0,0,0,3.75,19.5h8a3.755,3.755,0,0,0,3.75-3.75V5.578a2.729,2.729,0,0,0-.806-1.944M14,15.75A2.253,2.253,0,0,1,11.75,18h-8A2.253,2.253,0,0,1,1.5,15.75v-12A2.253,2.253,0,0,1,3.75,1.5H9.922a1.262,1.262,0,0,1,.884.366l2.828,2.828A1.262,1.262,0,0,1,14,5.578Z" fill="#000926"/>
    <path id="Path_6991" data-name="Path 6991" d="M9.206,6.582a1.75,1.75,0,0,0-2.912,0l-2.131,3.2A1.751,1.751,0,0,0,5.619,12.5H9.882a1.751,1.751,0,0,0,1.456-2.721Zm.9,4.286a.241.241,0,0,1-.22.132H5.619a.25.25,0,0,1-.208-.389l2.131-3.2a.25.25,0,0,1,.416,0l2.132,3.2a.241.241,0,0,1,.012.257" fill="#000926"/>
  </g>
</svg>
