<svg xmlns="http://www.w3.org/2000/svg" width="20.563" height="20.563" viewBox="0 0 20.563 20.563">
  <g id="ic-info" transform="translate(0)">
    <path id="Path_269" data-name="Path 269" d="M10.281,0A10.293,10.293,0,0,0,0,10.281v7.381a2.9,2.9,0,0,0,2.9,2.9h7.381A10.281,10.281,0,0,0,10.281,0m0,18.981H2.9a1.32,1.32,0,0,1-1.318-1.318V10.281a8.7,8.7,0,1,1,8.7,8.7" transform="translate(0)" fill="#000926"/>
    <path id="Path_270" data-name="Path 270" d="M8.845,8H7.791a.791.791,0,0,0,0,1.582H8.845a.264.264,0,0,1,.264.264v5.272a.791.791,0,1,0,1.582,0V9.845A1.847,1.847,0,0,0,8.845,8" transform="translate(0.382 0.436)" fill="#000926"/>
    <path id="Path_271" data-name="Path 271" d="M9.791,4A.791.791,0,0,0,9,4.791V5.845a.791.791,0,1,0,1.582,0V4.791A.791.791,0,0,0,9.791,4" transform="translate(0.491 0.218)" fill="#000926"/>
  </g>
</svg>
