<svg id="ic-inbox" xmlns="http://www.w3.org/2000/svg" xmlns:xlink="http://www.w3.org/1999/xlink" width="17.5" height="19.5" viewBox="0 0 17.5 19.5">
  <defs>
    <clipPath id="clip-path">
      <rect id="Rectangle_2551" data-name="Rectangle 2551" width="17.5" height="19.5" fill="#000926"/>
    </clipPath>
  </defs>
  <g id="Group_3677" data-name="Group 3677" clip-path="url(#clip-path)">
    <path id="Path_6965" data-name="Path 6965" d="M11.75,0h-6A5.757,5.757,0,0,0,0,5.75v8A5.757,5.757,0,0,0,5.75,19.5h6a5.757,5.757,0,0,0,5.75-5.75v-8A5.757,5.757,0,0,0,11.75,0m-6,1.5h6A4.255,4.255,0,0,1,16,5.75V12H13.868a2.546,2.546,0,0,0-2.289,1.415,1.056,1.056,0,0,1-.947.585H6.868a1.055,1.055,0,0,1-.947-.585A2.546,2.546,0,0,0,3.632,12H1.5V5.75A4.255,4.255,0,0,1,5.75,1.5m6,16.5h-6A4.255,4.255,0,0,1,1.5,13.75V13.5H3.632a1.055,1.055,0,0,1,.947.585A2.546,2.546,0,0,0,6.868,15.5h3.764a2.546,2.546,0,0,0,2.289-1.415,1.056,1.056,0,0,1,.947-.585H16v.25A4.255,4.255,0,0,1,11.75,18" fill="#000926"/>
    <path id="Path_6966" data-name="Path 6966" d="M4.75,5.5h8a.75.75,0,0,0,0-1.5h-8a.75.75,0,0,0,0,1.5" fill="#000926"/>
    <path id="Path_6967" data-name="Path 6967" d="M4.75,9.5h8a.75.75,0,0,0,0-1.5h-8a.75.75,0,0,0,0,1.5" fill="#000926"/>
  </g>
</svg>
