<svg xmlns="http://www.w3.org/2000/svg" width="19.5" height="19.5" viewBox="0 0 19.5 19.5">
  <g id="ic-images" transform="translate(-192)">
    <path id="Path_205" data-name="Path 205" d="M206.75,0h-10A4.756,4.756,0,0,0,192,4.75v10a4.756,4.756,0,0,0,4.75,4.75h10a4.756,4.756,0,0,0,4.75-4.75v-10A4.756,4.756,0,0,0,206.75,0m-10,1.5h10A3.254,3.254,0,0,1,210,4.75v7.4l-3.1-2.582a2.75,2.75,0,0,0-4.013.536l-1.98,2.829-2.32-1.741a2.765,2.765,0,0,0-3.6.256L193.5,12.939V4.75a3.254,3.254,0,0,1,3.25-3.25m-3.221,13.532,2.525-2.525a1.254,1.254,0,0,1,1.633-.116l2.36,1.769L197.36,18h-.61a3.243,3.243,0,0,1-3.221-2.968M206.75,18h-7.56l4.926-7.038a1.25,1.25,0,0,1,1.824-.243L210,14.1v.648A3.254,3.254,0,0,1,206.75,18" fill="#000926"/>
    <path id="Path_206" data-name="Path 206" d="M200.75,9.5A2.75,2.75,0,1,0,198,6.75a2.752,2.752,0,0,0,2.75,2.75m0-4a1.25,1.25,0,1,1-1.25,1.25,1.252,1.252,0,0,1,1.25-1.25" fill="#000926"/>
  </g>
</svg>
