<svg xmlns="http://www.w3.org/2000/svg" width="18.454" height="20.563" viewBox="0 0 18.454 20.563">
  <g id="ic-log-out" transform="translate(18.454) rotate(90)">
    <path id="Path_121" data-name="Path 121" d="M19.772,0a.791.791,0,0,0-.791.791V3.954a1.32,1.32,0,0,1-1.318,1.318H2.9A1.32,1.32,0,0,1,1.582,3.954V.791A.791.791,0,1,0,0,.791V3.954a2.9,2.9,0,0,0,2.9,2.9H17.663a2.9,2.9,0,0,0,2.9-2.9V.791A.791.791,0,0,0,19.772,0" transform="translate(0 11.599)" fill="#000926"/>
    <path id="Path_122" data-name="Path 122" d="M4.45,14a.79.79,0,0,0,1.119,0L9.786,9.786A.791.791,0,0,0,8.668,8.667L5.8,11.535V.791a.791.791,0,0,0-1.582,0V11.535L1.351,8.667A.791.791,0,0,0,.232,9.786Z" transform="translate(15.291 14.236) rotate(180)" fill="#000926"/>
  </g>
</svg>
