<svg xmlns="http://www.w3.org/2000/svg" width="14.54" height="19.926" viewBox="0 0 14.54 19.926">
  <g id="ic-lock" transform="translate(-849.036 -893.447)">
    <path id="Path_6999" data-name="Path 6999" d="M63.386,57.028V54.116a5.116,5.116,0,0,0-10.232,0v2.912A4.024,4.024,0,0,0,51,60.578v4.308a4.043,4.043,0,0,0,4.039,4.039H61.5a4.043,4.043,0,0,0,4.039-4.039V60.578a4.024,4.024,0,0,0-2.154-3.55M54.77,54.116a3.5,3.5,0,0,1,7,0v2.45c-.09-.005-.177-.027-.269-.027H55.039c-.093,0-.179.022-.269.027Zm9.155,10.771A2.426,2.426,0,0,1,61.5,67.31H55.039a2.426,2.426,0,0,1-2.423-2.423V60.578a2.426,2.426,0,0,1,2.423-2.423H61.5a2.426,2.426,0,0,1,2.423,2.423Z" transform="translate(798.036 844.447)" fill="#000926"/>
    <path id="Path_7000" data-name="Path 7000" d="M57.808,60a.808.808,0,0,0-.808.808v2.154a.808.808,0,0,0,1.616,0V60.808A.808.808,0,0,0,57.808,60" transform="translate(798.498 845.295)" fill="#000926"/>
  </g>
</svg>
