<svg xmlns="http://www.w3.org/2000/svg" width="19.5" height="13.5" viewBox="0 0 19.5 13.5">
  <g id="ic-mails" transform="translate(-1107.274 -851.951)">
    <path id="Path_6968" data-name="Path 6968" d="M19.5,7.75a4.7,4.7,0,0,0-.461-2.008.7.7,0,0,0-.079-.157c0-.005-.009-.007-.013-.011A4.734,4.734,0,0,0,14.75,3h-10a4.737,4.737,0,0,0-4.2,2.575l-.012.01a.771.771,0,0,0-.07.141A4.692,4.692,0,0,0,0,7.75v4a4.73,4.73,0,0,0,1.353,3.309c0,.005,0,.01.008.014l.011.009A4.732,4.732,0,0,0,4.75,16.5h10a4.73,4.73,0,0,0,3.379-1.42l.01-.007.007-.013A4.727,4.727,0,0,0,19.5,11.75Zm-1.5,0v4a3.222,3.222,0,0,1-.54,1.786l-3.63-3.01,4.126-3.21A3.128,3.128,0,0,1,18,7.75M4.75,4.5h10a3.24,3.24,0,0,1,2.634,1.361l-5.638,4.387a3.249,3.249,0,0,1-3.992,0L2.116,5.861A3.243,3.243,0,0,1,4.75,4.5M2.039,13.536A3.229,3.229,0,0,1,1.5,11.75v-4a3.128,3.128,0,0,1,.044-.434l4.125,3.209ZM4.75,15a3.208,3.208,0,0,1-1.6-.438l3.735-3.1a4.717,4.717,0,0,0,5.728,0l3.735,3.1a3.208,3.208,0,0,1-1.6.438Z" transform="translate(1107.274 848.951)" fill="#000926"/>
  </g>
</svg>
