<svg xmlns="http://www.w3.org/2000/svg" width="19.51" height="19.499" viewBox="0 0 19.51 19.499">
  <g id="ic-note" transform="translate(-292 -677.072)">
    <path id="Path_362" data-name="Path 362" d="M211,49.927l-1.415-1.414a1.751,1.751,0,0,0-2.475,0L203.621,52h-5.872A5.756,5.756,0,0,0,192,57.75v4a5.756,5.756,0,0,0,5.749,5.75h4a5.756,5.756,0,0,0,5.75-5.75V55.9l3.5-3.5a1.752,1.752,0,0,0,0-2.475m-4.778,5.131h0l-5.888,5.889a.255.255,0,0,1-.178.073h-1.414a.25.25,0,0,1-.25-.25V59.357a.247.247,0,0,1,.074-.177l7.661-7.662,1.768,1.768ZM206,61.75a4.255,4.255,0,0,1-4.25,4.25h-4a4.255,4.255,0,0,1-4.249-4.25v-4a4.255,4.255,0,0,1,4.249-4.25h4.372l-4.62,4.619a1.737,1.737,0,0,0-.512,1.238v1.414a1.752,1.752,0,0,0,1.75,1.75h1.414a1.763,1.763,0,0,0,1.238-.513L206,57.4Zm3.939-10.409-.885.884-1.768-1.768.883-.884a.252.252,0,0,1,.355,0l1.415,1.414a.254.254,0,0,1,0,.354" transform="translate(100 629.071)" fill="#000926"/>
  </g>
</svg>
