<svg xmlns="http://www.w3.org/2000/svg" width="19.5" height="19.5" viewBox="0 0 19.5 19.5">
  <g id="ic-numbers" transform="translate(-1120.989 -886.429)">
    <path id="Path_461" data-name="Path 461" d="M13.75,48h-8A5.757,5.757,0,0,0,0,53.752v8A5.757,5.757,0,0,0,5.75,67.5h8a5.757,5.757,0,0,0,5.75-5.75v-8A5.757,5.757,0,0,0,13.75,48M18,61.752A4.255,4.255,0,0,1,13.75,66h-8a4.255,4.255,0,0,1-4.25-4.25v-8A4.255,4.255,0,0,1,5.75,49.5h8A4.255,4.255,0,0,1,18,53.752Z" transform="translate(1120.989 838.427)" fill="#000926"/>
    <path id="Path_462" data-name="Path 462" d="M15.22,55.222l-3.47,3.47-3.469-3.47a.75.75,0,0,0-1.061,0l-4,4a.75.75,0,0,0,1.061,1.061l3.469-3.47,3.47,3.47a.752.752,0,0,0,1.061,0l4-4a.75.75,0,0,0-1.061-1.061" transform="translate(1120.989 838.427)" fill="#000926"/>
  </g>
</svg>
