<svg id="ic-private-mail" xmlns="http://www.w3.org/2000/svg" width="18.368" height="18.368" viewBox="0 0 18.368 18.368">
  <g id="Group_3853" data-name="Group 3853">
    <path id="Path_7037" data-name="Path 7037" d="M1.67-960.526v-7.792a3.622,3.622,0,0,1,3.618-3.618H13.08a3.622,3.622,0,0,1,3.618,3.618v7.792a3.622,3.622,0,0,1-3.618,3.618H5.288a3.622,3.622,0,0,1-3.618-3.618m16.4-9.458a5.277,5.277,0,0,0-4.993-3.622H5.288A5.294,5.294,0,0,0,0-968.318v7.792a5.277,5.277,0,0,0,3.622,4.993,8.329,8.329,0,0,0,1.96.295h7.5a5.294,5.294,0,0,0,5.288-5.288v-7.5a7.215,7.215,0,0,0-.295-1.959" transform="translate(0 973.606)" fill="#000926"/>
    <path id="Path_7038" data-name="Path 7038" d="M4662.286,1828.83a3.618,3.618,0,1,0-3.618-3.618,3.622,3.622,0,0,0,3.618,3.618m0-5.566a1.948,1.948,0,1,1-1.948,1.948,1.951,1.951,0,0,1,1.948-1.948" transform="translate(-4653.102 -1818.255)" fill="#000926"/>
    <path id="Path_7039" data-name="Path 7039" d="M2798.173,8345.4h5.04a1.384,1.384,0,0,1,1.245.77l.5,1a.835.835,0,0,0,1.493-.747l-.5-1a3.047,3.047,0,0,0-2.739-1.692h-5.04a3.047,3.047,0,0,0-2.739,1.692l-.5,1a.835.835,0,0,0,1.494.747l.5-1a1.384,1.384,0,0,1,1.245-.77" transform="translate(-2791.51 -8332.599)" fill="#000926"/>
  </g>
</svg>
