<svg xmlns="http://www.w3.org/2000/svg" width="18.827" height="18.77" viewBox="0 0 18.827 18.77">
  <path id="ic-phone" d="M768.7,133.078a2.365,2.365,0,0,0-.909.195,5.19,5.19,0,0,0-2.174,2.289c-.93,1.754-.385,5.452,4.215,10.1,4.011,4.057,6.97,4.676,8.376,4.684h.028a3.577,3.577,0,0,0,1.651-.356,5.2,5.2,0,0,0,2.314-2.149,1.841,1.841,0,0,0-.6-2.411l-.553-.376c-.988-.672-1.92-1.307-2.592-1.687a1.935,1.935,0,0,0-.9-.215h0a1.891,1.891,0,0,0-1.276.461,4.058,4.058,0,0,0-.57.63,1.288,1.288,0,0,1-.286.311.788.788,0,0,1-.4.1.983.983,0,0,1-.424-.1,9.072,9.072,0,0,1-3.6-3.643.868.868,0,0,1,.009-.821,1.285,1.285,0,0,1,.314-.282,4.073,4.073,0,0,0,.636-.562,2.006,2.006,0,0,0,.271-2.176c-.375-.68-1-1.626-1.669-2.627l-.36-.542a1.734,1.734,0,0,0-1.485-.825Z" transform="translate(-764.375 -132.328)" fill="none" stroke="#000926" stroke-miterlimit="10" stroke-width="1.5"/>
</svg>
