<svg xmlns="http://www.w3.org/2000/svg" width="20.563" height="20.563" viewBox="0 0 20.563 20.563">
  <g id="ic-question" transform="translate(0)">
    <g id="Group_2589" data-name="Group 2589" transform="translate(0 0)">
      <path id="Path_485" data-name="Path 485" d="M106.281,48A10.293,10.293,0,0,0,96,58.281v7.381a2.9,2.9,0,0,0,2.9,2.9h7.381a10.281,10.281,0,1,0,0-20.563m0,18.981H98.9a1.32,1.32,0,0,1-1.318-1.318V58.281a8.7,8.7,0,1,1,8.7,8.7" transform="translate(-96 -48)" fill="#000926"/>
      <path id="Path_486" data-name="Path 486" d="M105.791,61a.791.791,0,0,0-.791.791v1.054a.791.791,0,1,0,1.582,0V61.791a.791.791,0,0,0-.791-.791" transform="translate(-95.51 -47.292)" fill="#000926"/>
      <path id="Path_487" data-name="Path 487" d="M105.9,52a2.9,2.9,0,0,0-2.9,2.9.791.791,0,1,0,1.582,0,1.318,1.318,0,1,1,2.1,1.064,3.6,3.6,0,0,0-1.57,2.877v.276a.791.791,0,1,0,1.582,0V58.84a2.058,2.058,0,0,1,.924-1.6A2.9,2.9,0,0,0,105.9,52" transform="translate(-95.619 -47.782)" fill="#000926"/>
    </g>
  </g>
</svg>
