<svg xmlns="http://www.w3.org/2000/svg" width="20.563" height="20.563" viewBox="0 0 20.563 20.563">
  <g id="ic-settings" transform="translate(0)">
    <path id="Path_396" data-name="Path 396" d="M66.958,103.154a.537.537,0,0,1-.329-.8,2.114,2.114,0,0,0-.318-2.587l-1.517-1.516a2.115,2.115,0,0,0-2.588-.321.535.535,0,0,1-.8-.33A2.115,2.115,0,0,0,59.354,96H57.209a2.115,2.115,0,0,0-2.055,1.6.536.536,0,0,1-.8.329,2.116,2.116,0,0,0-2.587.32L50.252,99.77a2.114,2.114,0,0,0-.318,2.587.537.537,0,0,1-.329.8,2.112,2.112,0,0,0-1.6,2.054v2.146a2.112,2.112,0,0,0,1.6,2.054.537.537,0,0,1,.33.8,2.114,2.114,0,0,0,.318,2.587l1.517,1.517a2.117,2.117,0,0,0,2.588.318.536.536,0,0,1,.8.331,2.115,2.115,0,0,0,2.055,1.6h2.145a2.115,2.115,0,0,0,2.055-1.6.537.537,0,0,1,.8-.33,2.114,2.114,0,0,0,2.587-.318l1.517-1.517a2.114,2.114,0,0,0,.318-2.587.537.537,0,0,1,.329-.8,2.112,2.112,0,0,0,1.6-2.054v-2.146a2.112,2.112,0,0,0-1.6-2.054m.023,4.2a.534.534,0,0,1-.407.52,2.12,2.12,0,0,0-1.3,3.146.534.534,0,0,1-.08.655l-1.517,1.516a.534.534,0,0,1-.655.08,2.119,2.119,0,0,0-3.144,1.3.536.536,0,0,1-.521.406H57.209a.536.536,0,0,1-.521-.4,2.1,2.1,0,0,0-1.243-1.444,2.1,2.1,0,0,0-1.9.139.539.539,0,0,1-.656-.08l-1.517-1.516a.534.534,0,0,1-.08-.655,2.12,2.12,0,0,0-1.3-3.146.535.535,0,0,1-.406-.52v-2.146a.534.534,0,0,1,.407-.52,2.12,2.12,0,0,0,1.3-3.146.534.534,0,0,1,.08-.655l1.517-1.517a.536.536,0,0,1,.655-.079,2.119,2.119,0,0,0,3.145-1.3.537.537,0,0,1,.521-.407h2.145a.537.537,0,0,1,.521.406,2.118,2.118,0,0,0,3.143,1.3.535.535,0,0,1,.656.08l1.517,1.516a.534.534,0,0,1,.08.655,2.12,2.12,0,0,0,1.3,3.146h0a.534.534,0,0,1,.406.52Z" transform="translate(-48 -95.999)" fill="#000926"/>
    <path id="Path_397" data-name="Path 397" d="M58.009,101a5.009,5.009,0,1,0,5.009,5.009A5.015,5.015,0,0,0,58.009,101m0,8.436a3.427,3.427,0,1,1,3.427-3.427,3.431,3.431,0,0,1-3.427,3.427" transform="translate(-47.727 -95.726)" fill="#000926"/>
  </g>
</svg>
