<svg xmlns="http://www.w3.org/2000/svg" width="20.636" height="20.681" viewBox="0 0 20.636 20.681">
  <g id="ic-search-history" transform="translate(-687.482 -159.25)">
    <path id="Path_6983" data-name="Path 6983" d="M16.847,14.21l4.29,3.917" transform="translate(685.921 160.743)" fill="none" stroke="#000926" stroke-linecap="round" stroke-width="1.5"/>
    <path id="Path_6984" data-name="Path 6984" d="M96.559,152.276a.721.721,0,0,1,.859.541,7.9,7.9,0,1,0,1.244-6.3h3.586a.718.718,0,0,1,0,1.436H97.462a.718.718,0,0,1-.718-.718v-4.786a.718.718,0,0,1,1.436,0v2.387a9.324,9.324,0,1,1-2.161,8.3.717.717,0,0,1,.541-.859" transform="translate(591.482 17.522)" fill="#000926"/>
  </g>
</svg>
