<svg xmlns="http://www.w3.org/2000/svg" width="19.609" height="18.745" viewBox="0 0 19.609 18.745">
  <g id="ic-sent" transform="translate(-195.942 -773.018)">
    <path id="Path_341" data-name="Path 341" d="M115.1,144.584a1.836,1.836,0,0,0-1.851-.579L98.16,147.848a2.942,2.942,0,0,0-.776,5.381l4.479,2.661a.341.341,0,0,1,.143.166l1.988,4.815a2.9,2.9,0,0,0,2.716,1.821h0a2.9,2.9,0,0,0,2.717-1.813l5.977-14.376a1.835,1.835,0,0,0-.309-1.919m-17.64,5.909A1.4,1.4,0,0,1,98.53,149.3l14.134-3.6-10.186,8.81L98.15,151.94a1.4,1.4,0,0,1-.691-1.447m10.587,9.81a1.4,1.4,0,0,1-1.332.889h0a1.4,1.4,0,0,1-1.332-.893l-1.92-4.653,10.186-8.811Z" transform="translate(100 629.071)" fill="#000926"/>
  </g>
</svg>
