<svg xmlns="http://www.w3.org/2000/svg" width="18.06" height="19.036" viewBox="0 0 18.06 19.036">
  <g id="ic-save" transform="translate(0)">
    <path id="Path_6929" data-name="Path 6929" d="M17.273,4.762,13.536,1.025a2.665,2.665,0,0,0-1.9-.787H2.685A2.687,2.687,0,0,0,0,2.923V16.589a2.687,2.687,0,0,0,2.685,2.685H15.375a2.687,2.687,0,0,0,2.685-2.685V6.66a2.665,2.665,0,0,0-.787-1.9M9.762,1.7V4.875a.244.244,0,0,1-.244.244H4.637a.244.244,0,0,1-.244-.244V1.7ZM4.393,17.81V13.661a.244.244,0,0,1,.244-.244h7.81a.244.244,0,0,1,.244.244V17.81Zm12.2-1.22a1.222,1.222,0,0,1-1.22,1.22h-1.22V13.661a1.71,1.71,0,0,0-1.708-1.708H4.637a1.71,1.71,0,0,0-1.708,1.708V17.81H2.685a1.222,1.222,0,0,1-1.22-1.22V2.923A1.222,1.222,0,0,1,2.685,1.7h.244V4.875A1.71,1.71,0,0,0,4.637,6.583H9.518a1.71,1.71,0,0,0,1.708-1.708V1.7h.411a1.216,1.216,0,0,1,.864.357L16.238,5.8a1.216,1.216,0,0,1,.357.864Z" transform="translate(0 -0.238)" fill="#000926"/>
  </g>
</svg>
