<svg xmlns="http://www.w3.org/2000/svg" width="19.5" height="18.5" viewBox="0 0 19.5 18.5">
  <g id="ic-timeline" transform="translate(-1216.25 -948.75)">
    <path id="Path_7042" data-name="Path 7042" d="M105.75,1A2.752,2.752,0,0,0,103,3.752v13a2.75,2.75,0,0,0,5.5,0v-13A2.752,2.752,0,0,0,105.75,1M107,16.752a1.25,1.25,0,0,1-2.5,0v-13a1.25,1.25,0,0,1,2.5,0Z" transform="translate(1120.25 947.748)" fill="#000926"/>
    <path id="Path_7043" data-name="Path 7043" d="M112.75,6A2.752,2.752,0,0,0,110,8.752v8a2.75,2.75,0,0,0,5.5,0v-8A2.752,2.752,0,0,0,112.75,6M114,16.752a1.25,1.25,0,0,1-2.5,0v-8a1.25,1.25,0,0,1,2.5,0Z" transform="translate(1120.25 947.748)" fill="#000926"/>
    <path id="Path_7044" data-name="Path 7044" d="M98.75,10A2.752,2.752,0,0,0,96,12.752v4a2.75,2.75,0,0,0,5.5,0v-4A2.752,2.752,0,0,0,98.75,10m1.25,6.75a1.25,1.25,0,0,1-2.5,0v-4a1.25,1.25,0,0,1,2.5,0Z" transform="translate(1120.25 947.748)" fill="#000926"/>
  </g>
</svg>
