<svg id="ic-tools" xmlns="http://www.w3.org/2000/svg" width="13.5" height="19.5" viewBox="0 0 13.5 19.5">
  <path id="Path_6948" data-name="Path 6948" d="M9.75,0h-1A.75.75,0,0,0,8,.75V4.287l-1.25.625L5.5,4.287V.75A.75.75,0,0,0,4.75,0h-1A3.754,3.754,0,0,0,0,3.75v2a4.758,4.758,0,0,0,4,4.691V16.75a2.75,2.75,0,0,0,5.5,0V10.441a4.758,4.758,0,0,0,4-4.691v-2A3.755,3.755,0,0,0,9.75,0M12,5.75A3.254,3.254,0,0,1,8.75,9,.75.75,0,0,0,8,9.75v7a1.25,1.25,0,0,1-2.5,0v-7A.75.75,0,0,0,4.75,9,3.254,3.254,0,0,1,1.5,5.75v-2A2.252,2.252,0,0,1,3.75,1.5H4V4.75a.751.751,0,0,0,.415.671l2,1a.752.752,0,0,0,.67,0l2-1A.749.749,0,0,0,9.5,4.75V1.5h.25A2.253,2.253,0,0,1,12,3.75Z" fill="#000926"/>
</svg>
