<svg xmlns="http://www.w3.org/2000/svg" width="22.365" height="20.5" viewBox="0 0 22.365 20.5">
  <g id="ic-user-add" transform="translate(-844.171 -948.928)">
    <path id="Path_7021" data-name="Path 7021" d="M14.75,153a4.741,4.741,0,0,0-3.879,2.025,7.745,7.745,0,0,0-.683,1.475A4.7,4.7,0,0,0,10,157.75,4.75,4.75,0,1,0,14.75,153m0,8A3.25,3.25,0,1,1,18,157.75,3.254,3.254,0,0,1,14.75,161" transform="translate(847.036 803.928)" fill="#000926"/>
    <path id="Path_7022" data-name="Path 7022" d="M15.5,157v-1.25a.75.75,0,0,0-1.5,0V157H12.75a.75.75,0,0,0,0,1.5H14v1.25a.75.75,0,0,0,1.5,0V158.5h1.25a.75.75,0,0,0,0-1.5Z" transform="translate(847.036 803.928)" fill="#000926"/>
    <path id="Subtraction_1" data-name="Subtraction 1" d="M3202.75,1076.5h-14a2.753,2.753,0,0,1-2.75-2.75v-1.679a2.73,2.73,0,0,1,1.741-2.561,21.934,21.934,0,0,1,8.009-1.5,22.233,22.233,0,0,1,3.244.239,4.369,4.369,0,0,0-.076.827c0,.232.01.459.028.677a20.5,20.5,0,0,0-10.658,1.159,1.235,1.235,0,0,0-.786,1.163v1.679a1.251,1.251,0,0,0,1.249,1.249h14a1.251,1.251,0,0,0,1.25-1.248v-.435a4.472,4.472,0,0,0,1.5-.89v1.326A2.753,2.753,0,0,1,3202.75,1076.5Zm-7-10a4.75,4.75,0,1,1,4.75-4.75A4.755,4.755,0,0,1,3195.75,1066.5Zm0-8a3.25,3.25,0,1,0,3.25,3.25A3.254,3.254,0,0,0,3195.75,1058.5Z" transform="translate(-2341.329 -107.572)" fill="#000926" stroke="rgba(0,0,0,0)" stroke-miterlimit="10" stroke-width="1"/>
  </g>
</svg>
