<svg xmlns="http://www.w3.org/2000/svg" width="19.5" height="17.5" viewBox="0 0 19.5 17.5">
  <g id="ic-upload" transform="translate(-1338 -560.678)">
    <path id="Path_121" data-name="Path 121" d="M114.75,156a.75.75,0,0,0-.75.75v3a1.252,1.252,0,0,1-1.25,1.25h-14a1.252,1.252,0,0,1-1.25-1.25v-3a.75.75,0,0,0-1.5,0v3a2.752,2.752,0,0,0,2.75,2.75h14a2.752,2.752,0,0,0,2.75-2.75v-3a.75.75,0,0,0-.75-.75" transform="translate(1242 415.678)" fill="#000926"/>
    <path id="Path_122" data-name="Path 122" d="M105.22,158.28a.75.75,0,0,0,1.061,0l4-4a.75.75,0,1,0-1.061-1.061l-2.72,2.72V145.75a.75.75,0,0,0-1.5,0v10.189l-2.719-2.72a.75.75,0,1,0-1.061,1.061Z" transform="translate(1453.501 719.178) rotate(180)" fill="#000926"/>
  </g>
</svg>
