<svg xmlns="http://www.w3.org/2000/svg" width="19.5" height="19.5" viewBox="0 0 19.5 19.5">
  <g id="ic-user" transform="translate(-1136.823 -879.428)">
    <path id="Path_335" data-name="Path 335" d="M9.75,9.5A4.75,4.75,0,1,0,5,4.75,4.756,4.756,0,0,0,9.75,9.5m0-8A3.25,3.25,0,1,1,6.5,4.75,3.254,3.254,0,0,1,9.75,1.5" transform="translate(1136.823 879.428)" fill="#000926"/>
    <path id="Path_336" data-name="Path 336" d="M17.759,12.51a22.09,22.09,0,0,0-16.018,0A2.729,2.729,0,0,0,0,15.071V16.75A2.752,2.752,0,0,0,2.75,19.5h14a2.752,2.752,0,0,0,2.75-2.749V15.068a2.727,2.727,0,0,0-1.741-2.558M18,16.751A1.252,1.252,0,0,1,16.75,18h-14A1.252,1.252,0,0,1,1.5,16.75V15.071a1.237,1.237,0,0,1,.787-1.163,20.485,20.485,0,0,1,14.927,0A1.234,1.234,0,0,1,18,15.068Z" transform="translate(1136.823 879.428)" fill="#000926"/>
  </g>
</svg>
