<svg xmlns="http://www.w3.org/2000/svg" width="19.5" height="19.5" viewBox="0 0 19.5 19.5">
  <g id="ic-update" transform="translate(0 -141.728)">
    <path id="Path_1538" data-name="Path 1538" d="M9.75,141.728A9.706,9.706,0,0,0,2.5,144.97v-2.492a.75.75,0,0,0-1.5,0v5a.75.75,0,0,0,.75.75h5a.75.75,0,0,0,0-1.5H3a8.251,8.251,0,0,1,15,4.75.75.75,0,0,0,1.5,0,9.761,9.761,0,0,0-9.75-9.75" fill="#000926"/>
    <path id="Path_1539" data-name="Path 1539" d="M17.75,154.728h-5a.75.75,0,0,0,0,1.5H16.5a8.251,8.251,0,0,1-15-4.75.75.75,0,0,0-1.5,0,9.743,9.743,0,0,0,17,6.508v2.492a.75.75,0,0,0,1.5,0v-5a.75.75,0,0,0-.75-.75" fill="#000926"/>
  </g>
</svg>
