<svg xmlns="http://www.w3.org/2000/svg" width="19.159" height="16.74" viewBox="0 0 19.159 16.74">
  <g id="ic-upload-desktop" transform="translate(0 0.4)">
    <path id="Path_479" data-name="Path 479" d="M17.955,62.647h-.268V61.228a.8.8,0,1,0-1.608,0v1.419h-3.04a1.861,1.861,0,0,0-1.326.55l-.444.444a.273.273,0,0,1-.19.078h-3.4a.273.273,0,0,1-.19-.078L7.046,63.2a1.861,1.861,0,0,0-1.326-.55H2.68v-6.7a1.342,1.342,0,0,1,1.34-1.34H8.307a.8.8,0,1,0,0-1.608H4.02a2.95,2.95,0,0,0-2.948,2.948v6.7H.8a.8.8,0,0,0-.8.8v1.072a2.95,2.95,0,0,0,2.948,2.948H15.811a2.95,2.95,0,0,0,2.948-2.948V63.451a.8.8,0,0,0-.8-.8m-.8,1.876a1.342,1.342,0,0,1-1.34,1.34H2.948a1.342,1.342,0,0,1-1.34-1.34v-.268H5.72a.273.273,0,0,1,.19.078l.444.444a1.861,1.861,0,0,0,1.326.55h3.4a1.861,1.861,0,0,0,1.326-.55l.444-.444a.273.273,0,0,1,.19-.078h4.112Z" transform="translate(0 -51.131)" fill="#000926"/>
    <g id="Group_113" data-name="Group 113" transform="translate(11.168 0)">
      <path id="Path_121" data-name="Path 121" d="M103.3,156a.292.292,0,0,0-.292.292v1.168a.487.487,0,0,1-.487.487h-5.45a.487.487,0,0,1-.487-.487v-1.168a.292.292,0,1,0-.584,0v1.168a1.071,1.071,0,0,0,1.071,1.071h5.45a1.071,1.071,0,0,0,1.071-1.071v-1.168A.292.292,0,0,0,103.3,156" transform="translate(-96 -150.725)" fill="#000926" stroke="#000926" stroke-width="0.8"/>
      <path id="Path_122" data-name="Path 122" d="M102.643,150.17a.292.292,0,0,0,.413,0l1.557-1.557a.292.292,0,1,0-.413-.413l-1.059,1.059v-3.967a.292.292,0,1,0-.584,0v3.967L101.5,148.2a.292.292,0,0,0-.413.413Z" transform="translate(-99.054 -145)" fill="#000926" stroke="#000926" stroke-width="0.8"/>
    </g>
  </g>
</svg>
