<svg xmlns="http://www.w3.org/2000/svg" width="19.036" height="19.036" viewBox="0 0 19.036 19.036">
  <g id="ic-warning" transform="translate(0)">
    <path id="Path_6912" data-name="Path 6912" d="M161.677,147.952l-2.593-2.593A4.606,4.606,0,0,0,155.805,144h-4.574a4.606,4.606,0,0,0-3.279,1.359l-2.593,2.593A4.607,4.607,0,0,0,144,151.231v4.574a4.6,4.6,0,0,0,1.359,3.279l2.593,2.594a4.609,4.609,0,0,0,3.279,1.358h4.574a4.609,4.609,0,0,0,3.279-1.358l2.593-2.594a4.6,4.6,0,0,0,1.359-3.279v-4.574a4.607,4.607,0,0,0-1.359-3.279m-.105,7.854a3.154,3.154,0,0,1-.929,2.244l-2.593,2.593a3.156,3.156,0,0,1-2.244.929h-4.574a3.155,3.155,0,0,1-2.244-.929l-2.593-2.593a3.154,3.154,0,0,1-.929-2.244v-4.574a3.152,3.152,0,0,1,.929-2.243l2.593-2.594a3.155,3.155,0,0,1,2.244-.929h4.574a3.156,3.156,0,0,1,2.244.929l2.593,2.594a3.152,3.152,0,0,1,.929,2.243Z" transform="translate(-144 -144)" fill="#000926"/>
    <path id="Path_6913" data-name="Path 6913" d="M403.75,36.9v6.069" transform="translate(-394.477 -32.309)" fill="none" stroke="#000926" stroke-linecap="round" stroke-width="1.5"/>
    <circle id="Ellipse_210" data-name="Ellipse 210" cx="0.976" cy="0.976" r="0.976" transform="translate(8.297 12.498)" fill="#000926"/>
  </g>
</svg>
