<svg xmlns="http://www.w3.org/2000/svg" viewBox="0 0 349 370">
  <g fill="#000" stroke="#000" stroke-width="3" stroke-linejoin="round" stroke-linecap="round">
    <path d="M 86 268 L 86 274 L 91 278 L 268 278 L 273 274 L 273 268 L 255 236 L 221 236 L 226 247 L 132 247 L 170 181 L 155 153 L 152 153 Z" />
    <path d="M 209 56 L 189 91 L 206 119 L 213 107 L 249 168 L 260 191 L 183 191 L 166 220 L 304 219 L 307 215 L 307 211 L 221 61 L 215 55 Z" />
    <path d="M 150 56 L 144 55 L 138 61 L 52 211 L 52 215 L 55 219 L 95 220 L 112 191 L 98 189 L 146 107 L 186 175 L 219 175 Z" />
  </g>
</svg>
