
        <svg xmlns="http://www.w3.org/2000/svg" xmlns:xlink="http://www.w3.org/1999/xlink" version="1.1" width="3157.7437858508606" 
        height="652.5135936255024" viewBox="-78.87189292543022 0 3157.7437858508606 652.5135936255024">
			
			<g transform="scale(7.887189292543022) translate(10, 10)">
				<defs id="SvgjsDefs2762"></defs><g id="SvgjsG2763" featureKey="symbolFeature-0" transform="matrix(0.7954545617103577,0,0,0.7954545617103577,-17.954540144313466,-9.545405994762074)" fill="#1440cd"><g xmlns="http://www.w3.org/2000/svg" transform="translate(0,-952.36218)"><path d="m 60.7828,964.36215 27.1809,0.8834 -27.1809,25.9958 z m -1.9745,1.4513 0,26.7845 -25.2681,0 c 8.6166,-8.7334 16.8796,-17.8103 25.2681,-26.7845 z m 27.7053,3.628 3.4864,1.1989 -12.5877,7.4768 z m -68.1835,2.9656 5.5226,0 12.8654,14.0705 -5.9854,6.1204 -12.4026,0 c 9e-4,-6.7347 0,-13.4597 0,-20.1909 z m -1.9746,1.2304 0,5.8364 -6.3555,0 z m 3.363,20.9796 38.627,0 -10.7675,29.43465 z m 39.0898,4.54286 0,41.20229 -12.5878,-6.8775 c 4.1972,-11.443 8.3886,-22.879 12.5878,-34.32479 z" style="text-indent:0;text-transform:none;direction:ltr;block-progression:tb;baseline-shift:baseline;color:;enable-background:accumulate;" fill="#1440cd" fill-opacity="1" stroke="none" marker="none" visibility="visible" display="inline" overflow="visible"></path></g></g><g id="SvgjsG2764" featureKey="nameFeature-0" transform="matrix(1.4676282405853271,0,0,1.4676282405853271,81.18215105326905,-15.028509987133269)" fill="#1440cd"><path d="M35.04 35.12 l-30.88 0 l0 -22.88 c0 -0.74668 -0.37332 -1.12 -1.12 -1.12 s-1.12 0.37332 -1.12 1.12 l0 25.08 l33.12 0 c0.74668 0 1.12 -0.36 1.12 -1.08 c0 -0.74668 -0.37332 -1.12 -1.12 -1.12 z M72.83 25.119999999999997 c0.74668 0 1.12 -0.37332 1.12 -1.12 s-0.37332 -1.12 -1.12 -1.12 l-30.88 0 l0 -9.76 l30.88 0 c0.74668 0 1.12 -0.37332 1.12 -1.12 s-0.37332 -1.12 -1.12 -1.12 l-33.12 0 l0 26.24 l33.12 0 c0.74668 0 1.12 -0.37332 1.12 -1.12 s-0.37332 -1.12 -1.12 -1.12 l-30.88 0 l0 -9.76 l30.88 0 z M120.25999999999999 35.28 l-21.52 -25 l-20.84 25 c-0.16 0.18668 -0.24 0.41336 -0.24 0.68004 c0 0.77332 0.38668 1.16 1.16 1.16 c0.32 0 0.58668 -0.13332 0.8 -0.4 l0 0 l6.32 -7.6 l26.08 0 l6.56 7.6 c0.24 0.26668 0.53332 0.4 0.88 0.4 c0.72 0 1.08 -0.36 1.08 -1.08 c0 -0.29332 -0.09332 -0.54664 -0.28 -0.75996 z M87.82 26.880000000000003 l10.96 -13.16 l11.36 13.16 l-22.32 0 z M150.13 11.64 c-1.44 -0.50668 -2.8933 -0.76 -4.36 -0.76 l-21.12 0 l0 26.24 l21.12 0 c1.4667 0 2.92 -0.25332 4.36 -0.76 c2.6133 -0.90668 4.7268 -2.5 6.34 -4.78 s2.42 -4.8068 2.42 -7.58 s-0.80668 -5.3 -2.42 -7.58 s-3.7266 -3.8733 -6.34 -4.78 z M149.41 34.28 c-1.12 0.4 -2.3333 0.60016 -3.64 0.60016 l-18.88 0 l0 -21.76 l18.88 0 c1.3067 0 2.52 0.2 3.64 0.6 c2.16 0.77332 3.9067 2.1066 5.24 4 s2 3.9866 2 6.28 s-0.66668 4.3868 -2 6.28 s-3.08 3.2266 -5.24 4 z M162.79999999999998 28 c0 2.7467 1.6533 5.06 4.96 6.94 s7.36 2.82 12.16 2.82 c4.7732 0 8.6668 -0.52 11.68 -1.56 c3.6267 -1.2533 5.44 -3.0933 5.44 -5.52 c0 -2.5333 -1.5467 -4.36 -4.64 -5.48 c-1.76 -0.64 -5.1868 -1.3067 -10.28 -2 l-3.96 -0.56 c-4.8268 -0.69332 -8.0268 -1.3066 -9.6 -1.84 c-2.3467 -0.8 -3.52 -1.96 -3.52 -3.48 c0 -1.44 1.3867 -2.6133 4.16 -3.52 s6.3468 -1.36 10.72 -1.36 c4.0268 0 7.5132 0.74668 10.46 2.24 s4.42 3.2666 4.42 5.32 l0 0 c0 0.74668 0.37332 1.12 1.12 1.12 s1.12 -0.37332 1.12 -1.12 l0 0 c0 -2.7467 -1.6533 -5.06 -4.96 -6.94 s-7.36 -2.82 -12.16 -2.82 c-4.7732 0 -8.6668 0.52 -11.68 1.56 c-3.6267 1.2533 -5.44 3.0933 -5.44 5.52 c0 2.5333 1.6133 4.3732 4.84 5.52 c1.5467 0.53332 4.96 1.2 10.24 2 l1.88 0.28 l2.04 0.28 c4.88 0.66668 8.12 1.28 9.72 1.84 c2.1867 0.74668 3.28 1.8934 3.28 3.44 c0 1.44 -1.3867 2.6133 -4.16 3.52 s-6.3468 1.36 -10.72 1.36 c-4.0268 0 -7.5132 -0.74668 -10.46 -2.24 s-4.42 -3.2666 -4.42 -5.32 l0 0 c0 -0.74668 -0.37332 -1.12 -1.12 -1.12 s-1.12 0.37332 -1.12 1.12 z"></path></g><g id="SvgjsG2765" featureKey="sloganFeature-0" transform="matrix(0.6351696848869324,0,0,0.6351696848869324,83.05077525026395,49.91307558321452)" fill="#1440cd"><path d="M6.82 16.22 c-0.01334 0.66666 -0.076582 1.25 -0.18992 1.75 s-0.30668 0.91334 -0.58002 1.24 s-0.63334 0.57 -1.08 0.73 s-1.01 0.24 -1.69 0.24 c-1.1733 0 -2.0266 -0.32666 -2.56 -0.98 s-0.8 -1.6467 -0.8 -2.98 l0 -7.4 c0 -1.3333 0.27 -2.3266 0.81 -2.98 s1.4633 -0.98 2.77 -0.98 c1.1733 0 2.0134 0.32666 2.52 0.98 s0.77332 1.6467 0.79998 2.98 l0.02 0.92 l-0.92 0 l-0.02 -1.16 c0 -0.33334 -0.03334 -0.67 -0.1 -1.01 s-0.18666 -0.65 -0.36 -0.93 s-0.41668 -0.50666 -0.73002 -0.68 s-0.73 -0.26 -1.25 -0.26 c-0.50666 0 -0.93 0.08 -1.27 0.24 s-0.61 0.38 -0.81 0.66 s-0.33666 0.61 -0.41 0.99 s-0.11 0.79 -0.11 1.23 l0.04 7.5 c0 0.92 0.17 1.64 0.51 2.16 s0.96334 0.78 1.87 0.78 c0.52 0 0.95 -0.07 1.29 -0.21 s0.60666 -0.33666 0.8 -0.59 s0.33 -0.56 0.41 -0.92 s0.12 -0.75334 0.12 -1.18 l0.02 -1.3 l0.92 0 z M29.037 20.18 c-2.52 0 -3.78 -1.32 -3.78 -3.96 l0 -7.4 c0 -1.3333 0.31666 -2.3266 0.95 -2.98 s1.6567 -0.98 3.07 -0.98 c1.2933 0 2.25 0.33 2.87 0.99 s0.93 1.6367 0.93 2.93 l0 7.44 c0 0.66666 -0.07 1.2467 -0.21 1.74 s-0.37 0.90668 -0.69 1.24 s-0.73666 0.58 -1.25 0.74 s-1.1433 0.24 -1.89 0.24 z M32.016999999999996 8.76 c0 -0.33334 -0.04664 -0.67338 -0.13998 -1.02 s-0.24668 -0.66332 -0.46002 -0.94998 s-0.49668 -0.52 -0.85002 -0.7 s-0.79 -0.27 -1.31 -0.27 c-0.57334 0 -1.05 0.08 -1.43 0.24 s-0.68 0.38334 -0.9 0.67 s-0.37666 0.62332 -0.47 1.01 s-0.14 0.80666 -0.14 1.26 l0 7.1 c0 0.34666 0.04 0.7 0.12 1.06 s0.22334 0.69 0.43 0.99 s0.48666 0.54666 0.84 0.74 s0.79668 0.29 1.33 0.29 c0.57334 0 1.05 -0.07666 1.43 -0.23 s0.68334 -0.36334 0.91 -0.63 s0.39 -0.58332 0.49 -0.94998 s0.15 -0.76332 0.15 -1.19 l0 -7.42 z M58.034 20 l-5.8 -12.88 l0 12.88 l-1.1 0 l0 -15 l1.18 0 l5.8 12.3 l0.14 -12.3 l1.08 0 l0 15 l-1.3 0 z M84.59100000000001 20 l-5.8 -12.88 l0 12.88 l-1.1 0 l0 -15 l1.18 0 l5.8 12.3 l0.14 -12.3 l1.08 0 l0 15 l-1.3 0 z M104.048 20 l0 -15 l7.36 0 l0 1.16 l-6.32 0 l0 5.7 l6.26 0 l0 0.92 l-6.26 0 l0 6.06 l6.46 0 l0 1.16 l-7.5 0 z M135.565 16.22 c-0.01334 0.66666 -0.076582 1.25 -0.18992 1.75 s-0.30668 0.91334 -0.58002 1.24 s-0.63334 0.57 -1.08 0.73 s-1.01 0.24 -1.69 0.24 c-1.1733 0 -2.0266 -0.32666 -2.56 -0.98 s-0.8 -1.6467 -0.8 -2.98 l0 -7.4 c0 -1.3333 0.27 -2.3266 0.81 -2.98 s1.4633 -0.98 2.77 -0.98 c1.1733 0 2.0134 0.32666 2.52 0.98 s0.77332 1.6467 0.79998 2.98 l0.02 0.92 l-0.92 0 l-0.02 -1.16 c0 -0.33334 -0.03334 -0.67 -0.1 -1.01 s-0.18666 -0.65 -0.36 -0.93 s-0.41668 -0.50666 -0.73002 -0.68 s-0.73 -0.26 -1.25 -0.26 c-0.50666 0 -0.93 0.08 -1.27 0.24 s-0.61 0.38 -0.81 0.66 s-0.33666 0.61 -0.41 0.99 s-0.11 0.79 -0.11 1.23 l0.04 7.5 c0 0.92 0.17 1.64 0.51 2.16 s0.96334 0.78 1.87 0.78 c0.52 0 0.95 -0.07 1.29 -0.21 s0.60666 -0.33666 0.8 -0.59 s0.33 -0.56 0.41 -0.92 s0.12 -0.75334 0.12 -1.18 l0.02 -1.3 l0.92 0 z M157.702 6.1 l0 13.9 l-1.16 0 l0 -13.9 l-3.26 0 l0 -1.1 l7.68 0 l0 1.1 l-3.26 0 z M178.75900000000001 20 l0 -15 l1.28 0 l0 15 l-1.28 0 z M205.376 20 l-5.8 -12.88 l0 12.88 l-1.1 0 l0 -15 l1.18 0 l5.8 12.3 l0.14 -12.3 l1.08 0 l0 15 l-1.3 0 z M228.49300000000002 20.18 c-1.2667 0 -2.2134 -0.33334 -2.84 -1 s-0.94 -1.6533 -0.94 -2.96 l0 -7.4 c0 -1.3333 0.31334 -2.3266 0.94 -2.98 s1.64 -0.98 3.04 -0.98 c1.32 0 2.2866 0.33 2.9 0.99 s0.92 1.6367 0.92 2.93 l0 1.08 l-1.08 0 l0 -1.28 c0 -0.33334 -0.04 -0.67 -0.12 -1.01 s-0.22334 -0.65 -0.43 -0.93 s-0.49 -0.50666 -0.85 -0.68 s-0.82 -0.26 -1.38 -0.26 s-1.0233 0.07666 -1.39 0.23 s-0.66 0.37 -0.88 0.65 s-0.37666 0.61 -0.47 0.99 s-0.14 0.79666 -0.14 1.25 l0 7.48 c0 0.46666 0.04666 0.88332 0.14 1.25 s0.25 0.67666 0.47 0.93 s0.50666 0.44668 0.86 0.58002 s0.78334 0.2 1.29 0.2 c0.56 0 1.0267 -0.07 1.4 -0.21 s0.67334 -0.33666 0.9 -0.59 s0.39 -0.56 0.49 -0.92 s0.15 -0.75334 0.15 -1.18 l0 -2.94 l-3.14 -0.02 l0 -0.98 l4.18 0.02 l0 3.78 c0 1.32 -0.30666 2.31 -0.92 2.97 s-1.6467 0.99 -3.1 0.99 z M270.587 20 l0 -15 l7.36 0 l0 1.16 l-6.32 0 l0 5.7 l6.26 0 l0 0.92 l-6.26 0 l0 6.06 l6.46 0 l0 1.16 l-7.5 0 z M299.964 20 l-0.86 0 l-4.14 -15 l1.06 0 l3.5 13.26 l3.58 -13.26 l1.02 0 z M322.041 20 l0 -15 l1.28 0 l0 15 l-1.28 0 z M348.778 16.96 c-0.09334 0.41334 -0.23 0.80334 -0.41 1.17 s-0.41666 0.69 -0.71 0.97 s-0.65 0.5 -1.07 0.66 s-0.91 0.24 -1.47 0.24 l-3.64 0 l0 -15 l3.5 0 c1.0133 0 1.8633 0.23666 2.55 0.71 s1.13 1.27 1.33 2.39 c0.04 0.21334 0.07334 0.54334 0.1 0.99 s0.04666 0.96 0.06 1.54 s0.02 1.19 0.02 1.83 s-0.01 1.2533 -0.03 1.84 s-0.05 1.1167 -0.09 1.59 s-0.08666 0.83 -0.14 1.07 z M344.798 6.02 l-2.32 0.000019531 l0 12.9 l2.6 0 c0.36 0 0.68 -0.06334 0.96 -0.19 s0.53 -0.29332 0.75 -0.49998 s0.40334 -0.43666 0.55 -0.69 s0.26666 -0.5 0.36 -0.74 c0.06666 -0.17334 0.12332 -0.48668 0.16998 -0.94002 s0.08 -0.97 0.1 -1.55 s0.03 -1.1967 0.03 -1.85 s-0.01 -1.2667 -0.03 -1.84 s-0.05 -1.08 -0.09 -1.52 s-0.08666 -0.74666 -0.14 -0.92 c-0.08 -0.24 -0.18666 -0.49 -0.32 -0.75 s-0.31 -0.49334 -0.53 -0.7 s-0.5 -0.37666 -0.84 -0.51 s-0.75666 -0.2 -1.25 -0.2 z M366.995 20 l0 -15 l7.36 0 l0 1.16 l-6.32 0 l0 5.7 l6.26 0 l0 0.92 l-6.26 0 l0 6.06 l6.46 0 l0 1.16 l-7.5 0 z M399.092 20 l-5.8 -12.88 l0 12.88 l-1.1 0 l0 -15 l1.18 0 l5.8 12.3 l0.14 -12.3 l1.08 0 l0 15 l-1.3 0 z M424.949 16.22 c-0.01334 0.66666 -0.076582 1.25 -0.18992 1.75 s-0.30668 0.91334 -0.58002 1.24 s-0.63334 0.57 -1.08 0.73 s-1.01 0.24 -1.69 0.24 c-1.1733 0 -2.0266 -0.32666 -2.56 -0.98 s-0.8 -1.6467 -0.8 -2.98 l0 -7.4 c0 -1.3333 0.27 -2.3266 0.81 -2.98 s1.4633 -0.98 2.77 -0.98 c1.1733 0 2.0134 0.32666 2.52 0.98 s0.77332 1.6467 0.79998 2.98 l0.02 0.92 l-0.92 0 l-0.02 -1.16 c0 -0.33334 -0.03334 -0.67 -0.1 -1.01 s-0.18666 -0.65 -0.36 -0.93 s-0.41668 -0.50666 -0.73002 -0.68 s-0.73 -0.26 -1.25 -0.26 c-0.50666 0 -0.93 0.08 -1.27 0.24 s-0.61 0.38 -0.81 0.66 s-0.33666 0.61 -0.41 0.99 s-0.11 0.79 -0.11 1.23 l0.04 7.5 c0 0.92 0.17 1.64 0.51 2.16 s0.96334 0.78 1.87 0.78 c0.52 0 0.95 -0.07 1.29 -0.21 s0.60666 -0.33666 0.8 -0.59 s0.33 -0.56 0.41 -0.92 s0.12 -0.75334 0.12 -1.18 l0.02 -1.3 l0.92 0 z M443.26599999999996 20 l0 -15 l7.36 0 l0 1.16 l-6.32 0 l0 5.7 l6.26 0 l0 0.92 l-6.26 0 l0 6.06 l6.46 0 l0 1.16 l-7.5 0 z"></path></g>
			</g>
		</svg>
	